<svg width="122" height="44" version="1.1" viewBox="0 0 122 44" xmlns="http://www.w3.org/2000/svg" xmlns:xlink="http://www.w3.org/1999/xlink">
 <g>
  <g>
   <path d="m35.971 6.8086c-6.2342 0-10.765 11.203-13.457 16.25v9.457c6.2342 0 10.765-11.203 13.457-16.25 2.6917 5.0473 7.2228 16.25 13.457 16.25 6.2342 0 10.765-11.203 13.457-16.25 2.6917 5.0473 7.2228 16.25 13.457 16.25s10.765-11.203 13.457-16.25c2.6917 5.0473 7.2228 16.25 13.457 16.25 6.2342 0 10.765-11.203 13.457-16.25 0.99807-1.7733 1.1896-2.1328 2.0195-3.5703v-5.4863c-0.65218-0.25417-1.3249-0.40039-2.0195-0.40039-6.2342-1e-7 -10.765 11.203-13.457 16.25-2.6917-5.0474-7.2228-16.25-13.457-16.25-6.2342-1e-7 -10.765 11.203-13.457 16.25-2.6917-5.0474-7.2228-16.25-13.457-16.25s-10.765 11.203-13.457 16.25c-2.6917-5.0474-7.2228-16.25-13.457-16.25z" fill="#ccc"/>
   <path d="m47.303 6.8086c-6.2342 0-10.765 11.203-13.457 16.25-1.3873-2.6014-3.2675-6.8311-5.6133-10.326v16.727c1.6833 1.8204 3.5531 3.0566 5.6133 3.0566 6.2342 0 10.765-11.203 13.457-16.25 2.6917 5.0474 7.2228 16.25 13.457 16.25s10.765-11.203 13.457-16.25c2.6917 5.0474 7.2228 16.25 13.457 16.25s10.765-11.203 13.457-16.25c2.6917 5.0474 7.2228 16.25 13.457 16.25 1.4791 0 2.859-0.64442 4.1445-1.6738v-15.742c-1.6724 2.8963-3.0602 5.9257-4.1445 7.959-2.6917-5.0473-7.2228-16.25-13.457-16.25-6.2342 0-10.765 11.203-13.457 16.25-2.6917-5.0473-7.2228-16.25-13.457-16.25s-10.765 11.203-13.457 16.25c-2.6917-5.0473-7.2228-16.25-13.457-16.25z" fill="#f88"/>
   <path d="m9.123 6.6309c-3.3136 0.00533-6.0215 2.7799-6.1094 6.2598-0.01017 0.0121-0.021094 0.02707-0.03125 0.03906v14.432c0.00592-0.0083 0.011664-0.01712 0.017578-0.02539v12.664h8.0762v-19.883c2.7323 5.4264 6.5779 12.398 11.506 12.398 4.8199 0 8.6092-6.678 11.33-12.049v19.533h8.4453v-27.027c-2e-3 -0.0024-0.0039-0.0054-0.0059-0.0078-0.05003-3.513-2.7748-6.3334-6.1191-6.334-1.4914 9.788e-4 -2.9312 0.57396-4.0488 1.6113-4.2783 3.1846-7.5003 9.6296-9.6016 13.57-1.962-3.6792-4.9017-9.3791-8.7656-12.876-1.1626-1.4602-2.8813-2.3042-4.6934-2.3047z" fill="#f00"/>
  </g>
  <path d="m75.586 1.8145c-0.0291 18.102 0 24.872 0 38.186 5.0823 0 0.09014 0.02644 8.4414 0v-38.186zm12.828 4.9043v8.6113c3.3447 0 6.3513-3.06e-4 10.086 0.02734l10.498 16.229c-4.0751-2e-3 -7.9034-0.01162-12.182 0-0.02361-6.5132-7.18e-4 -9.0291 0-14.6h-8.3906v11.211l-0.01172 11.803 25.156-0.02734 1.1406-0.53906c1.4154-0.6701 2.6298-1.8579 3.3652-3.2891 0.50175-0.9766 0.55645-1.2229 0.56445-2.6016 0.0104-1.7362-0.2142-2.5539-1.3476-4.9082-1.513-3.1427-5.2032-8.8866-10.762-16.75-2.2273-3.1509-2.6549-3.6589-3.5606-4.2383-1.3432-0.85938-1.9519-0.92773-8.4805-0.92773zm-39.203 5.0781-0.91797 0.54883c-0.61756 0.37011-1.0857 0.82292-1.4316 1.3828-0.50579 0.81864-0.51483 0.87407-0.56836 3.4375-0.03856 1.8477-0.0293 3.0176-0.0293 3.0176 8.4739 0 16.423 9.34e-4 24.805-0.0098v-2.623c0-2.9167-0.05902-3.1324-1.2363-4.4375-1.2265-1.3596-0.79467-1.3083-11.301-1.3125zm-2.9473 10.016v7.252c0 8.0715-0.0078 8.0018 0.94922 9.2559 0.4977 0.65215 1.4701 1.3069 2.291 1.543 0.91818 0.26407 18.039 0.23032 18.787-0.03711 0.98372-0.35144 1.8099-1.0947 2.2539-2.0273 0.41326-0.86819 0.41546-0.89869 0.53125-7.9961 0.03759-2.3807-0.0058-5.0176-0.0078-7.9902h-8.3809v9.7734h-7.9512v-9.7734z" fill="#f00"/>
 </g>
</svg>
